<svg width="128" height="32" viewBox="0 0 128 32" fill="none" xmlns="http://www.w3.org/2000/svg">
<g opacity="0.9">
<path d="M19 27.3L18.4 26.8C16.4 24.9 15 23.7 15 22.2C15 21 16 20 17.2 20C17.9 20 18.6 20.3 19 20.8C19.4 20.3 20.1 20 20.8 20C22 20 23 20.9 23 22.2C23 23.7 21.6 24.9 19.6 26.8L19 27.3Z" fill="#50B2C0"/>
<path d="M18 6C19.1 6 20 6.9 20 8V17.08L19 17L18 17.08V8H13V16L10.5 13.75L8 16V8H6V24H13.08C13.2 24.72 13.45 25.39 13.8 26H6C4.9 26 4 25.1 4 24V8C4 6.9 4.9 6 6 6H18Z" fill="#8381D9"/>
<path d="M33.7861 23V8.9H39.9461C41.4261 8.9 42.5728 9.22667 43.3861 9.88C44.1994 10.52 44.6061 11.4133 44.6061 12.56C44.6061 13.4133 44.3594 14.1333 43.8661 14.72C43.3728 15.3067 42.6994 15.7 41.8461 15.9V15.6C42.4994 15.6933 43.0594 15.8933 43.5261 16.2C43.9928 16.5067 44.3461 16.9 44.5861 17.38C44.8394 17.86 44.9661 18.42 44.9661 19.06C44.9661 19.8867 44.7728 20.6 44.3861 21.2C44.0128 21.7867 43.4661 22.2333 42.7461 22.54C42.0261 22.8467 41.1661 23 40.1661 23H33.7861ZM36.2461 21.06H39.8461C40.2061 21.06 40.5261 21.0333 40.8061 20.98C41.0994 20.9267 41.3461 20.8467 41.5461 20.74C41.7594 20.62 41.9328 20.4733 42.0661 20.3C42.2128 20.1267 42.3194 19.9267 42.3861 19.7C42.4528 19.4733 42.4861 19.22 42.4861 18.94C42.4861 18.6467 42.4528 18.3867 42.3861 18.16C42.3194 17.9333 42.2128 17.74 42.0661 17.58C41.9328 17.4067 41.7594 17.2667 41.5461 17.16C41.3461 17.04 41.0994 16.9533 40.8061 16.9C40.5261 16.8467 40.2061 16.82 39.8461 16.82H36.2461V21.06ZM36.2461 14.88H39.5061C40.3861 14.88 41.0394 14.7133 41.4661 14.38C41.9061 14.0333 42.1261 13.5267 42.1261 12.86C42.1261 12.1933 41.9061 11.6933 41.4661 11.36C41.0394 11.0133 40.3861 10.84 39.5061 10.84H36.2461V14.88ZM51.7756 23.2C50.7623 23.2 49.8823 22.9933 49.1356 22.58C48.389 22.1667 47.809 21.58 47.3956 20.82C46.9823 20.0467 46.7756 19.14 46.7756 18.1C46.7756 17.06 46.9823 16.16 47.3956 15.4C47.809 14.64 48.389 14.0533 49.1356 13.64C49.8823 13.2267 50.7623 13.02 51.7756 13.02C52.789 13.02 53.669 13.2267 54.4156 13.64C55.1623 14.0533 55.7423 14.64 56.1556 15.4C56.569 16.16 56.7756 17.06 56.7756 18.1C56.7756 19.14 56.569 20.0467 56.1556 20.82C55.7423 21.58 55.1623 22.1667 54.4156 22.58C53.669 22.9933 52.789 23.2 51.7756 23.2ZM51.7756 21.3C52.5223 21.3 53.1223 21.0333 53.5756 20.5C54.029 19.9533 54.2556 19.1533 54.2556 18.1C54.2556 17.0333 54.029 16.24 53.5756 15.72C53.1223 15.1867 52.5223 14.92 51.7756 14.92C51.029 14.92 50.429 15.1867 49.9756 15.72C49.5223 16.24 49.2956 17.0333 49.2956 18.1C49.2956 19.1533 49.5223 19.9533 49.9756 20.5C50.429 21.0333 51.029 21.3 51.7756 21.3ZM63.2991 23.2C62.2857 23.2 61.4057 22.9933 60.6591 22.58C59.9124 22.1667 59.3324 21.58 58.9191 20.82C58.5057 20.0467 58.2991 19.14 58.2991 18.1C58.2991 17.06 58.5057 16.16 58.9191 15.4C59.3324 14.64 59.9124 14.0533 60.6591 13.64C61.4057 13.2267 62.2857 13.02 63.2991 13.02C64.3124 13.02 65.1924 13.2267 65.9391 13.64C66.6857 14.0533 67.2657 14.64 67.6791 15.4C68.0924 16.16 68.2991 17.06 68.2991 18.1C68.2991 19.14 68.0924 20.0467 67.6791 20.82C67.2657 21.58 66.6857 22.1667 65.9391 22.58C65.1924 22.9933 64.3124 23.2 63.2991 23.2ZM63.2991 21.3C64.0457 21.3 64.6457 21.0333 65.0991 20.5C65.5524 19.9533 65.7791 19.1533 65.7791 18.1C65.7791 17.0333 65.5524 16.24 65.0991 15.72C64.6457 15.1867 64.0457 14.92 63.2991 14.92C62.5524 14.92 61.9524 15.1867 61.4991 15.72C61.0457 16.24 60.8191 17.0333 60.8191 18.1C60.8191 19.1533 61.0457 19.9533 61.4991 20.5C61.9524 21.0333 62.5524 21.3 63.2991 21.3ZM70.3625 23V8.9H72.8625V17.38H72.9025L76.8425 13.22H79.8625L74.9425 18.42V17.38L80.1425 23H77.0825L72.9025 18.64H72.8625V23H70.3625ZM85.2052 23L80.2252 8.9H82.8652L86.7652 20.46H85.9652L90.0452 8.9H91.9452L95.8852 20.46H95.1852L99.1452 8.9H101.645L96.6252 23H94.5052L90.7052 12.16H91.1652L87.3252 23H85.2052ZM103.191 11.12V8.68H105.991V11.12H103.191ZM103.351 23V13.22H105.851V23H103.351ZM112.028 23.2C111.482 23.2 110.948 23.1533 110.428 23.06C109.922 22.9667 109.455 22.84 109.028 22.68C108.602 22.5067 108.228 22.2933 107.908 22.04L108.548 20.4C108.882 20.6133 109.242 20.8 109.628 20.96C110.015 21.12 110.415 21.24 110.828 21.32C111.242 21.4 111.648 21.44 112.048 21.44C112.688 21.44 113.162 21.3333 113.468 21.12C113.788 20.8933 113.948 20.6 113.948 20.24C113.948 19.9333 113.842 19.7 113.628 19.54C113.428 19.3667 113.122 19.24 112.708 19.16L110.708 18.78C109.882 18.62 109.248 18.32 108.808 17.88C108.382 17.4267 108.168 16.8467 108.168 16.14C108.168 15.5 108.342 14.9467 108.688 14.48C109.048 14.0133 109.542 13.6533 110.168 13.4C110.795 13.1467 111.515 13.02 112.328 13.02C112.795 13.02 113.248 13.0667 113.688 13.16C114.128 13.24 114.542 13.3667 114.928 13.54C115.328 13.7 115.675 13.9133 115.968 14.18L115.288 15.82C115.035 15.6067 114.742 15.4267 114.408 15.28C114.075 15.12 113.728 15 113.368 14.92C113.022 14.8267 112.682 14.78 112.348 14.78C111.695 14.78 111.208 14.8933 110.888 15.12C110.582 15.3467 110.428 15.6467 110.428 16.02C110.428 16.3 110.522 16.5333 110.708 16.72C110.895 16.9067 111.182 17.0333 111.568 17.1L113.568 17.48C114.435 17.64 115.088 17.9333 115.528 18.36C115.982 18.7867 116.208 19.36 116.208 20.08C116.208 20.7333 116.035 21.2933 115.688 21.76C115.342 22.2267 114.855 22.5867 114.228 22.84C113.602 23.08 112.868 23.2 112.028 23.2ZM123.034 23.2C121.927 23.2 120.974 22.9933 120.174 22.58C119.374 22.1667 118.754 21.58 118.314 20.82C117.887 20.06 117.674 19.16 117.674 18.12C117.674 17.1067 117.881 16.22 118.294 15.46C118.721 14.7 119.301 14.1067 120.034 13.68C120.781 13.24 121.627 13.02 122.574 13.02C123.507 13.02 124.307 13.22 124.974 13.62C125.641 14.02 126.154 14.5867 126.514 15.32C126.887 16.0533 127.074 16.9267 127.074 17.94V18.68H119.694V17.24H125.314L124.994 17.54C124.994 16.6333 124.794 15.94 124.394 15.46C123.994 14.9667 123.421 14.72 122.674 14.72C122.114 14.72 121.634 14.8533 121.234 15.12C120.847 15.3733 120.547 15.74 120.334 16.22C120.134 16.6867 120.034 17.2467 120.034 17.9V18.04C120.034 18.7733 120.147 19.38 120.374 19.86C120.601 20.34 120.941 20.7 121.394 20.94C121.847 21.18 122.407 21.3 123.074 21.3C123.621 21.3 124.167 21.22 124.714 21.06C125.261 20.8867 125.761 20.62 126.214 20.26L126.914 21.94C126.447 22.3267 125.861 22.6333 125.154 22.86C124.447 23.0867 123.741 23.2 123.034 23.2Z" fill="url(#paint0_linear_726_2403)"/>
</g>
<defs>
<linearGradient id="paint0_linear_726_2403" x1="32" y1="16.3137" x2="128" y2="16.3137" gradientUnits="userSpaceOnUse">
<stop stop-color="#7FD1CC"/>
<stop offset="1" stop-color="#9694F5"/>
</linearGradient>
</defs>
</svg>
