<svg width="108" height="152" viewBox="0 0 108 152" fill="none" xmlns="http://www.w3.org/2000/svg">
<rect width="108" height="152" rx="8" fill="#121121"/>
<path d="M67.7781 63.8543L53.1457 78.4867V63.5914H66.2886C66.8143 63.5914 67.2962 63.701 67.7781 63.8543ZM47.6695 75.639L42.1933 78.9248V63.5914H40.0029C38.841 63.5914 37.7266 64.053 36.9051 64.8746C36.0835 65.6962 35.6219 66.8105 35.6219 67.9724V96.0105L52.8829 78.7714L47.6695 75.639ZM74.1962 63L31 106.218L33.7819 109L36.8048 105.977C37.5933 106.853 38.7324 107.401 40.0029 107.401H66.2886C68.72 107.401 70.6695 105.451 70.6695 103.02V72.1124L77 65.7819L74.1962 63Z" fill="url(#paint0_linear_6578_2459)"/>
<path d="M16.5289 42V30.72H21.4569C22.6409 30.72 23.5582 30.9813 24.2089 31.504C24.8595 32.016 25.1849 32.7307 25.1849 33.648C25.1849 34.3307 24.9875 34.9067 24.5929 35.376C24.1982 35.8453 23.6595 36.16 22.9769 36.32V36.08C23.4995 36.1547 23.9475 36.3147 24.3209 36.56C24.6942 36.8053 24.9769 37.12 25.1689 37.504C25.3715 37.888 25.4729 38.336 25.4729 38.848C25.4729 39.5093 25.3182 40.08 25.0089 40.56C24.7102 41.0293 24.2729 41.3867 23.6969 41.632C23.1209 41.8773 22.4329 42 21.6329 42H16.5289ZM18.4969 40.448H21.3769C21.6649 40.448 21.9209 40.4267 22.1449 40.384C22.3795 40.3413 22.5769 40.2773 22.7369 40.192C22.9075 40.096 23.0462 39.9787 23.1529 39.84C23.2702 39.7013 23.3555 39.5413 23.4089 39.36C23.4622 39.1787 23.4889 38.976 23.4889 38.752C23.4889 38.5173 23.4622 38.3093 23.4089 38.128C23.3555 37.9467 23.2702 37.792 23.1529 37.664C23.0462 37.5253 22.9075 37.4133 22.7369 37.328C22.5769 37.232 22.3795 37.1627 22.1449 37.12C21.9209 37.0773 21.6649 37.056 21.3769 37.056H18.4969V40.448ZM18.4969 35.504H21.1049C21.8089 35.504 22.3315 35.3707 22.6729 35.104C23.0249 34.8267 23.2009 34.4213 23.2009 33.888C23.2009 33.3547 23.0249 32.9547 22.6729 32.688C22.3315 32.4107 21.8089 32.272 21.1049 32.272H18.4969V35.504ZM30.9205 42.16C30.1098 42.16 29.4058 41.9947 28.8085 41.664C28.2112 41.3333 27.7472 40.864 27.4165 40.256C27.0858 39.6373 26.9205 38.912 26.9205 38.08C26.9205 37.248 27.0858 36.528 27.4165 35.92C27.7472 35.312 28.2112 34.8427 28.8085 34.512C29.4058 34.1813 30.1098 34.016 30.9205 34.016C31.7312 34.016 32.4352 34.1813 33.0325 34.512C33.6298 34.8427 34.0938 35.312 34.4245 35.92C34.7552 36.528 34.9205 37.248 34.9205 38.08C34.9205 38.912 34.7552 39.6373 34.4245 40.256C34.0938 40.864 33.6298 41.3333 33.0325 41.664C32.4352 41.9947 31.7312 42.16 30.9205 42.16ZM30.9205 40.64C31.5178 40.64 31.9978 40.4267 32.3605 40C32.7232 39.5627 32.9045 38.9227 32.9045 38.08C32.9045 37.2267 32.7232 36.592 32.3605 36.176C31.9978 35.7493 31.5178 35.536 30.9205 35.536C30.3232 35.536 29.8432 35.7493 29.4805 36.176C29.1178 36.592 28.9365 37.2267 28.9365 38.08C28.9365 38.9227 29.1178 39.5627 29.4805 40C29.8432 40.4267 30.3232 40.64 30.9205 40.64ZM40.1393 42.16C39.3286 42.16 38.6246 41.9947 38.0273 41.664C37.4299 41.3333 36.9659 40.864 36.6353 40.256C36.3046 39.6373 36.1393 38.912 36.1393 38.08C36.1393 37.248 36.3046 36.528 36.6353 35.92C36.9659 35.312 37.4299 34.8427 38.0273 34.512C38.6246 34.1813 39.3286 34.016 40.1393 34.016C40.9499 34.016 41.6539 34.1813 42.2513 34.512C42.8486 34.8427 43.3126 35.312 43.6433 35.92C43.9739 36.528 44.1393 37.248 44.1393 38.08C44.1393 38.912 43.9739 39.6373 43.6433 40.256C43.3126 40.864 42.8486 41.3333 42.2513 41.664C41.6539 41.9947 40.9499 42.16 40.1393 42.16ZM40.1393 40.64C40.7366 40.64 41.2166 40.4267 41.5793 40C41.9419 39.5627 42.1233 38.9227 42.1233 38.08C42.1233 37.2267 41.9419 36.592 41.5793 36.176C41.2166 35.7493 40.7366 35.536 40.1393 35.536C39.5419 35.536 39.0619 35.7493 38.6993 36.176C38.3366 36.592 38.1553 37.2267 38.1553 38.08C38.1553 38.9227 38.3366 39.5627 38.6993 40C39.0619 40.4267 39.5419 40.64 40.1393 40.64ZM45.79 42V30.72H47.79V37.504H47.822L50.974 34.176H53.39L49.454 38.336V37.504L53.614 42H51.166L47.822 38.512H47.79V42H45.79ZM57.6641 42L53.6801 30.72H55.7921L58.9121 39.968H58.2721L61.5361 30.72H63.0561L66.2081 39.968H65.6481L68.8161 30.72H70.8161L66.8001 42H65.1041L62.0641 33.328H62.4321L59.3601 42H57.6641ZM72.0526 32.496V30.544H74.2926V32.496H72.0526ZM72.1806 42V34.176H74.1806V42H72.1806ZM79.1228 42.16C78.6854 42.16 78.2588 42.1227 77.8428 42.048C77.4374 41.9733 77.0641 41.872 76.7228 41.744C76.3814 41.6053 76.0828 41.4347 75.8268 41.232L76.3388 39.92C76.6054 40.0907 76.8934 40.24 77.2028 40.368C77.5121 40.496 77.8321 40.592 78.1628 40.656C78.4934 40.72 78.8188 40.752 79.1388 40.752C79.6508 40.752 80.0294 40.6667 80.2748 40.496C80.5308 40.3147 80.6588 40.08 80.6588 39.792C80.6588 39.5467 80.5734 39.36 80.4028 39.232C80.2428 39.0933 79.9974 38.992 79.6668 38.928L78.0668 38.624C77.4054 38.496 76.8988 38.256 76.5468 37.904C76.2054 37.5413 76.0348 37.0773 76.0348 36.512C76.0348 36 76.1734 35.5573 76.4508 35.184C76.7388 34.8107 77.1334 34.5227 77.6348 34.32C78.1361 34.1173 78.7121 34.016 79.3628 34.016C79.7361 34.016 80.0988 34.0533 80.4508 34.128C80.8028 34.192 81.1334 34.2933 81.4428 34.432C81.7628 34.56 82.0401 34.7307 82.2748 34.944L81.7308 36.256C81.5281 36.0853 81.2934 35.9413 81.0268 35.824C80.7601 35.696 80.4828 35.6 80.1948 35.536C79.9174 35.4613 79.6454 35.424 79.3788 35.424C78.8561 35.424 78.4668 35.5147 78.2108 35.696C77.9654 35.8773 77.8428 36.1173 77.8428 36.416C77.8428 36.64 77.9174 36.8267 78.0668 36.976C78.2161 37.1253 78.4454 37.2267 78.7548 37.28L80.3548 37.584C81.0481 37.712 81.5708 37.9467 81.9228 38.288C82.2854 38.6293 82.4668 39.088 82.4668 39.664C82.4668 40.1867 82.3281 40.6347 82.0508 41.008C81.7734 41.3813 81.3841 41.6693 80.8828 41.872C80.3814 42.064 79.7948 42.16 79.1228 42.16ZM87.9273 42.16C87.0419 42.16 86.2793 41.9947 85.6393 41.664C84.9993 41.3333 84.5033 40.864 84.1513 40.256C83.8099 39.648 83.6393 38.928 83.6393 38.096C83.6393 37.2853 83.8046 36.576 84.1353 35.968C84.4766 35.36 84.9406 34.8853 85.5273 34.544C86.1246 34.192 86.8019 34.016 87.5593 34.016C88.3059 34.016 88.9459 34.176 89.4793 34.496C90.0126 34.816 90.4233 35.2693 90.7113 35.856C91.0099 36.4427 91.1593 37.1413 91.1593 37.952V38.544H85.2553V37.392H89.7513L89.4953 37.632C89.4953 36.9067 89.3353 36.352 89.0153 35.968C88.6953 35.5733 88.2366 35.376 87.6393 35.376C87.1913 35.376 86.8073 35.4827 86.4873 35.696C86.1779 35.8987 85.9379 36.192 85.7673 36.576C85.6073 36.9493 85.5273 37.3973 85.5273 37.92V38.032C85.5273 38.6187 85.6179 39.104 85.7993 39.488C85.9806 39.872 86.2526 40.16 86.6153 40.352C86.9779 40.544 87.4259 40.64 87.9593 40.64C88.3966 40.64 88.8339 40.576 89.2713 40.448C89.7086 40.3093 90.1086 40.096 90.4713 39.808L91.0312 41.152C90.6579 41.4613 90.1886 41.7067 89.6233 41.888C89.0579 42.0693 88.4926 42.16 87.9273 42.16Z" fill="url(#paint1_linear_6578_2459)"/>
<path d="M28.8881 133V125.95H29.9381L33.8781 131.11H33.7181V125.95H34.9681V133H33.8881L29.9881 127.86H30.1281V133H28.8881ZM39.8513 133.1C39.3313 133.1 38.8613 133.017 38.4413 132.85C38.0213 132.677 37.6613 132.433 37.3613 132.12C37.0613 131.8 36.8313 131.417 36.6713 130.97C36.5113 130.523 36.4313 130.023 36.4313 129.47C36.4313 128.917 36.5113 128.42 36.6713 127.98C36.8313 127.533 37.0613 127.153 37.3613 126.84C37.6613 126.52 38.0213 126.277 38.4413 126.11C38.8613 125.937 39.3313 125.85 39.8513 125.85C40.3646 125.85 40.8313 125.937 41.2513 126.11C41.6713 126.277 42.0313 126.517 42.3313 126.83C42.6313 127.143 42.8613 127.523 43.0213 127.97C43.1813 128.41 43.2613 128.907 43.2613 129.46C43.2613 130.013 43.1813 130.513 43.0213 130.96C42.8613 131.407 42.6313 131.79 42.3313 132.11C42.0313 132.43 41.6713 132.677 41.2513 132.85C40.8313 133.017 40.3646 133.1 39.8513 133.1ZM39.8513 131.96C40.2846 131.96 40.6513 131.863 40.9513 131.67C41.258 131.477 41.4913 131.193 41.6513 130.82C41.818 130.447 41.9013 129.997 41.9013 129.47C41.9013 128.937 41.8213 128.487 41.6613 128.12C41.5013 127.747 41.268 127.467 40.9613 127.28C40.6546 127.087 40.2846 126.99 39.8513 126.99C39.418 126.99 39.048 127.087 38.7413 127.28C38.4346 127.467 38.198 127.747 38.0313 128.12C37.8713 128.487 37.7913 128.937 37.7913 129.47C37.7913 129.997 37.8713 130.447 38.0313 130.82C38.198 131.193 38.4346 131.477 38.7413 131.67C39.048 131.863 39.418 131.96 39.8513 131.96ZM47.5404 133V125.95H48.8604V133H47.5404ZM50.5682 133V125.95H51.8282L54.2982 130.67H54.1082L56.5782 125.95H57.8182V133H56.5882V127.91H56.7182L54.6082 131.9H53.7782L51.6482 127.9H51.7882V133H50.5682ZM58.7626 133L61.9426 125.95H63.0626L66.2426 133H64.8926L64.0426 131.02L64.6026 131.43H60.3826L60.9426 131.02L60.1026 133H58.7626ZM62.4826 127.36L61.0826 130.67L60.8226 130.36H64.1626L63.9126 130.67L62.5126 127.36H62.4826ZM70.3831 133.1C69.6164 133.1 68.9631 132.953 68.4231 132.66C67.8898 132.367 67.4798 131.95 67.1931 131.41C66.9131 130.87 66.7731 130.227 66.7731 129.48C66.7731 128.733 66.9164 128.09 67.2031 127.55C67.4898 127.003 67.8998 126.583 68.4331 126.29C68.9731 125.997 69.6164 125.85 70.3631 125.85C70.7031 125.85 71.0298 125.883 71.3431 125.95C71.6564 126.01 71.9431 126.1 72.2031 126.22C72.4698 126.333 72.6964 126.477 72.8831 126.65L72.4531 127.67C72.1331 127.43 71.8064 127.26 71.4731 127.16C71.1398 127.053 70.7731 127 70.3731 127C69.6531 127 69.0998 127.213 68.7131 127.64C68.3264 128.06 68.1331 128.673 68.1331 129.48C68.1331 130.307 68.3298 130.93 68.7231 131.35C69.1164 131.763 69.6964 131.97 70.4631 131.97C70.7631 131.97 71.0498 131.947 71.3231 131.9C71.6031 131.847 71.8698 131.773 72.1231 131.68L71.8331 132.27V130.14H70.2331V129.12H72.9531V132.58C72.7398 132.687 72.4898 132.78 72.2031 132.86C71.9231 132.933 71.6264 132.99 71.3131 133.03C71.0064 133.077 70.6964 133.1 70.3831 133.1ZM74.5814 133V125.95H79.3514V127.02H75.8614V128.89H79.1314V129.96H75.8614V131.93H79.3514V133H74.5814Z" fill="#BC0000"/>
<defs>
<linearGradient id="paint0_linear_6578_2459" x1="54" y1="63" x2="54" y2="109" gradientUnits="userSpaceOnUse">
<stop stop-color="#7FD1CC"/>
<stop offset="1" stop-color="#9694F5"/>
</linearGradient>
<linearGradient id="paint1_linear_6578_2459" x1="15" y1="37.2549" x2="92" y2="37.2549" gradientUnits="userSpaceOnUse">
<stop stop-color="#7FD1CC"/>
<stop offset="1" stop-color="#9694F5"/>
</linearGradient>
</defs>
</svg>
